<svg width="38" height="38" viewBox="0 0 38 38" fill="none" xmlns="http://www.w3.org/2000/svg">
<g filter="url(#filter0_d_149_170)">
<path d="M34 18C34 26.2843 27.2843 33 19 33C10.7157 33 4 26.2843 4 18C4 9.71573 10.7157 3 19 3C27.2843 3 34 9.71573 34 18Z" fill="url(#paint0_linear_149_170)"/>
<path d="M9.95437 20.5H8.08748L8.9499 15.3052H10.7813C11.3038 15.3052 11.7375 15.4117 12.0825 15.6248C12.4292 15.8379 12.6735 16.1431 12.8156 16.5405C12.9576 16.9362 12.983 17.4088 12.8917 17.9584C12.8037 18.4894 12.6287 18.9451 12.3666 19.3256C12.1045 19.7044 11.7688 19.9952 11.3596 20.1982C10.9504 20.3994 10.482 20.5 9.95437 20.5ZM9.34307 19.5589H10.0178C10.3441 19.5589 10.6299 19.4981 10.8751 19.3763C11.122 19.2546 11.3241 19.0669 11.4814 18.8132C11.6403 18.5596 11.7528 18.2349 11.8187 17.8392C11.8813 17.4638 11.8771 17.1594 11.806 16.926C11.7367 16.691 11.6023 16.5193 11.4027 16.4111C11.2032 16.3012 10.9411 16.2462 10.6164 16.2462H9.89349L9.34307 19.5589Z" fill="white"/>
<path d="M15.0319 15.3052L14.9431 15.8531C14.9177 16.0087 14.8611 16.1676 14.7731 16.33C14.6869 16.4906 14.582 16.6428 14.4586 16.7865C14.3352 16.9286 14.2066 17.0495 14.0731 17.1492L13.6368 16.8677C13.7433 16.7341 13.8422 16.5861 13.9335 16.4238C14.0265 16.2615 14.0908 16.0729 14.1263 15.8582L14.2202 15.3052H15.0319Z" fill="white"/>
<path d="M14.9164 20.5L15.7789 15.3052H17.8284C18.2207 15.3052 18.5428 15.3804 18.7948 15.5309C19.0484 15.6798 19.226 15.8869 19.3275 16.1524C19.4306 16.4162 19.4543 16.7206 19.3985 17.0655C19.341 17.4122 19.2159 17.7174 19.0231 17.9812C18.832 18.2433 18.5834 18.448 18.2773 18.5951C17.9713 18.7422 17.6178 18.8157 17.2171 18.8157H15.9108L16.0553 17.9356H17.1841C17.3972 17.9356 17.579 17.8992 17.7295 17.8265C17.8816 17.7521 18.0026 17.6498 18.0922 17.5196C18.1818 17.3877 18.2401 17.2363 18.2672 17.0655C18.2959 16.8914 18.2866 16.74 18.2393 16.6115C18.1919 16.483 18.1049 16.3832 17.978 16.3122C17.8529 16.2395 17.6846 16.2031 17.4733 16.2031H16.7326L16.0148 20.5H14.9164Z" fill="white"/>
<path d="M24.736 17.9736C24.6413 18.5283 24.4578 18.9992 24.1855 19.3865C23.915 19.7737 23.5844 20.0679 23.1938 20.2692C22.8048 20.4704 22.3855 20.571 21.9356 20.571C21.4639 20.571 21.0572 20.4636 20.7156 20.2489C20.3757 20.0341 20.1296 19.7238 19.9775 19.318C19.8253 18.9104 19.7965 18.4192 19.8912 17.8443C19.9825 17.2879 20.1643 16.8161 20.4366 16.4289C20.7088 16.0399 21.0411 15.744 21.4334 15.5411C21.8257 15.3365 22.2476 15.2342 22.6991 15.2342C23.1676 15.2342 23.5717 15.3424 23.9116 15.5588C24.2532 15.7753 24.4992 16.0881 24.6497 16.4974C24.8019 16.9049 24.8307 17.397 24.736 17.9736ZM23.6427 17.8443C23.7019 17.4875 23.6994 17.1881 23.6351 16.9463C23.5726 16.7028 23.4576 16.5185 23.2902 16.3934C23.1227 16.2682 22.9114 16.2057 22.656 16.2057C22.3787 16.2057 22.1242 16.275 21.8925 16.4137C21.6625 16.5523 21.4681 16.7536 21.3091 17.0174C21.1519 17.2795 21.0428 17.5982 20.9819 17.9736C20.921 18.3321 20.9227 18.6314 20.987 18.8716C21.0529 19.1117 21.1705 19.2935 21.3396 19.4169C21.5104 19.5387 21.7226 19.5995 21.9762 19.5995C22.2519 19.5995 22.5038 19.5319 22.7321 19.3966C22.9621 19.2596 23.1557 19.0609 23.313 18.8005C23.4702 18.5384 23.5802 18.2197 23.6427 17.8443Z" fill="white"/>
<path d="M28.5553 16.8144C28.5638 16.6031 28.5021 16.4399 28.3702 16.3249C28.24 16.2099 28.043 16.1524 27.7792 16.1524C27.5999 16.1524 27.4443 16.1778 27.3124 16.2285C27.1805 16.2775 27.0749 16.346 26.9954 16.4339C26.9176 16.5202 26.8694 16.62 26.8508 16.7333C26.8322 16.8263 26.8381 16.9074 26.8686 16.9768C26.9007 17.0461 26.9506 17.1061 27.0182 17.1569C27.0875 17.2059 27.1696 17.249 27.2643 17.2862C27.359 17.3217 27.4596 17.3522 27.5661 17.3775L28.0125 17.4891C28.2307 17.5399 28.4268 17.6075 28.601 17.6921C28.7769 17.7766 28.924 17.8806 29.0424 18.0041C29.1624 18.1275 29.247 18.2729 29.296 18.4403C29.3451 18.6078 29.3518 18.7997 29.3163 19.0161C29.2622 19.334 29.1362 19.6097 28.9384 19.843C28.7405 20.0747 28.4809 20.2548 28.1597 20.3833C27.8384 20.5101 27.4663 20.5736 27.0436 20.5736C26.6242 20.5736 26.2699 20.5093 25.9808 20.3808C25.6916 20.2523 25.4811 20.062 25.3492 19.8101C25.219 19.5564 25.1801 19.2427 25.2325 18.869H26.2953C26.2767 19.0432 26.3021 19.1886 26.3714 19.3053C26.4424 19.4203 26.5481 19.5074 26.6885 19.5666C26.8288 19.6241 26.9937 19.6528 27.1831 19.6528C27.3708 19.6528 27.5374 19.6257 27.6828 19.5716C27.8299 19.5175 27.9491 19.4423 28.0404 19.3459C28.1317 19.2495 28.1876 19.1387 28.2078 19.0136C28.2281 18.8969 28.2104 18.7988 28.1546 18.7194C28.0988 18.6399 28.0091 18.5722 27.8857 18.5164C27.764 18.4589 27.6126 18.4082 27.4317 18.3642L26.8888 18.2222C26.4695 18.1157 26.1524 17.9491 25.9377 17.7225C25.7229 17.4959 25.646 17.1907 25.7068 16.8068C25.7609 16.4923 25.892 16.2175 26.1 15.9824C26.3097 15.7457 26.5735 15.5622 26.8914 15.432C27.211 15.3001 27.5602 15.2342 27.939 15.2342C28.3245 15.2342 28.65 15.301 28.9155 15.4346C29.181 15.5665 29.3746 15.7508 29.4964 15.9875C29.6182 16.2243 29.6554 16.4999 29.608 16.8144H28.5553Z" fill="white"/>
</g>
<defs>
<filter id="filter0_d_149_170" x="0" y="0" width="38" height="38" filterUnits="userSpaceOnUse" color-interpolation-filters="sRGB">
<feFlood flood-opacity="0" result="BackgroundImageFix"/>
<feColorMatrix in="SourceAlpha" type="matrix" values="0 0 0 0 0 0 0 0 0 0 0 0 0 0 0 0 0 0 127 0" result="hardAlpha"/>
<feOffset dy="1"/>
<feGaussianBlur stdDeviation="2"/>
<feComposite in2="hardAlpha" operator="out"/>
<feColorMatrix type="matrix" values="0 0 0 0 0 0 0 0 0 0 0 0 0 0 0 0 0 0 0.25 0"/>
<feBlend mode="normal" in2="BackgroundImageFix" result="effect1_dropShadow_149_170"/>
<feBlend mode="normal" in="SourceGraphic" in2="effect1_dropShadow_149_170" result="shape"/>
</filter>
<linearGradient id="paint0_linear_149_170" x1="7.21429" y1="26.9286" x2="27.9286" y2="6.21429" gradientUnits="userSpaceOnUse">
<stop stop-color="#085078"/>
<stop offset="1" stop-color="#0875E4"/>
</linearGradient>
</defs>
</svg>
